<svg width="600" height="400" viewBox="0 0 600 400" xmlns="http://www.w3.org/2000/svg">
  <!-- Background -->
  <defs>
    <linearGradient id="mlGradient" x1="0%" y1="0%" x2="100%" y2="100%">
      <stop offset="0%" style="stop-color:#7C3AED;stop-opacity:1" />
      <stop offset="100%" style="stop-color:#A855F7;stop-opacity:1" />
    </linearGradient>
  </defs>
  
  <!-- Background -->
  <rect width="600" height="400" fill="url(#mlGradient)"/>
  
  <!-- Code Editor Interface -->
  <rect x="40" y="40" width="520" height="320" rx="10" fill="#1F2937" stroke="#374151" stroke-width="2"/>
  
  <!-- Title Bar -->
  <rect x="40" y="40" width="520" height="30" rx="10" fill="#111827"/>
  <circle cx="60" cy="55" r="5" fill="#EF4444"/>
  <circle cx="80" cy="55" r="5" fill="#F59E0B"/>
  <circle cx="100" cy="55" r="5" fill="#10B981"/>
  <text x="120" y="60" fill="#FFF" font-family="Arial, sans-serif" font-size="10">salifort_motors_capstone.ipynb</text>
  
  <!-- Code Content -->
  <rect x="60" y="90" width="480" height="250" rx="5" fill="#1F2937"/>
  
  <!-- Code Lines -->
  <text x="70" y="110" fill="#9CA3AF" font-family="monospace" font-size="10">import pandas as pd</text>
  <text x="70" y="125" fill="#9CA3AF" font-family="monospace" font-size="10">import numpy as np</text>
  <text x="70" y="140" fill="#9CA3AF" font-family="monospace" font-size="10">from sklearn.ensemble import RandomForestClassifier</text>
  <text x="70" y="155" fill="#9CA3AF" font-family="monospace" font-size="10">from sklearn.metrics import classification_report</text>
  
  <!-- Data Visualization -->
  <rect x="80" y="180" width="200" height="120" rx="5" fill="#374151" stroke="#6B7280"/>
  <text x="180" y="200" text-anchor="middle" fill="#FFF" font-family="Arial, sans-serif" font-size="12">Employee Retention Analysis</text>
  
  <!-- Bar Chart -->
  <rect x="100" y="220" width="20" height="40" fill="#3B82F6"/>
  <rect x="125" y="230" width="20" height="30" fill="#10B981"/>
  <rect x="150" y="210" width="20" height="50" fill="#F59E0B"/>
  <rect x="175" y="225" width="20" height="35" fill="#EF4444"/>
  <rect x="200" y="215" width="20" height="45" fill="#8B5CF6"/>
  <rect x="225" y="235" width="20" height="25" fill="#06B6D4"/>
  
  <!-- Accuracy Score -->
  <rect x="320" y="180" width="180" height="80" rx="5" fill="#065F46" stroke="#10B981"/>
  <text x="410" y="205" text-anchor="middle" fill="#FFF" font-family="Arial, sans-serif" font-size="14" font-weight="bold">Model Accuracy</text>
  <text x="410" y="235" text-anchor="middle" fill="#FFF" font-family="Arial, sans-serif" font-size="28" font-weight="bold">89.2%</text>
  
  <!-- Feature Importance -->
  <rect x="320" y="275" width="180" height="55" rx="5" fill="#1E40AF" stroke="#3B82F6"/>
  <text x="410" y="295" text-anchor="middle" fill="#FFF" font-family="Arial, sans-serif" font-size="12" font-weight="bold">Key Features</text>
  <text x="330" y="310" fill="#FFF" font-family="Arial, sans-serif" font-size="9">• Satisfaction Level</text>
  <text x="330" y="322" fill="#FFF" font-family="Arial, sans-serif" font-size="9">• Number of Projects</text>
  
  <!-- Google Logo -->
  <text x="480" y="340" fill="#4285F4" font-family="Arial, sans-serif" font-size="12" font-weight="bold">Google</text>
  
  <text x="300" y="385" text-anchor="middle" fill="#FFF" font-family="Arial, sans-serif" font-size="16" font-weight="bold">Machine Learning Capstone Project</text>
</svg>
